<svg width="920" height="620" viewBox="0 0 920 620" fill="none" xmlns="http://www.w3.org/2000/svg">
  <rect width="920" height="620" rx="28" fill="#F8FAFC"/>
  <path d="M0 180C124 143 206 143 309 180C417 219 515 220 624 180C728 141 800 142 920 176V620H0V180Z" fill="#D9E7FF"/>
  <path d="M0 319C114 286 212 286 319 320C425 354 536 355 646 320C747 288 825 290 920 316V620H0V319Z" fill="#CFE8D5"/>
  <path d="M170 98L247 175M247 175L170 252M247 175H128M489 215L566 292M566 292L489 369M566 292H447M666 119L743 196M743 196L666 273M743 196H624" stroke="#B9C3D0" stroke-width="20" stroke-linecap="round" stroke-linejoin="round"/>
  <path d="M440 133C440 95.4446 470.445 65 508 65C545.555 65 576 95.4446 576 133C576 183.6 508 256 508 256C508 256 440 183.6 440 133Z" fill="#163D7A"/>
  <circle cx="508" cy="133" r="24" fill="#F6BE42"/>
</svg>
