<svg width="1600" height="900" viewBox="0 0 1600 900" fill="none" xmlns="http://www.w3.org/2000/svg">
  <rect width="1600" height="900" fill="#D9E7FF"/>
  <rect y="558" width="1600" height="342" fill="#CFE8D5"/>
  <rect y="0" width="1600" height="900" fill="url(#paint0_linear_1_2)"/>
  <path d="M0 621C162 571 357 571 510 621C662 670 821 671 964 621C1119 567 1308 568 1600 632V900H0V621Z" fill="#9DC5A8"/>
  <rect x="388" y="292" width="826" height="324" rx="16" fill="#F8F9FB"/>
  <rect x="453" y="347" width="696" height="225" rx="10" fill="#163D7A"/>
  <rect x="523" y="410" width="112" height="162" fill="#F6BE42"/>
  <rect x="669" y="410" width="112" height="162" fill="#F6BE42"/>
  <rect x="814" y="410" width="112" height="162" fill="#F6BE42"/>
  <rect x="960" y="410" width="112" height="162" fill="#F6BE42"/>
  <rect x="388" y="247" width="826" height="66" rx="14" fill="#0B1F3F"/>
  <path d="M801 167L1064 247H538L801 167Z" fill="#D4A72C"/>
  <circle cx="209" cy="211" r="58" fill="#FDF3CF"/>
  <defs>
    <linearGradient id="paint0_linear_1_2" x1="800" y1="0" x2="800" y2="900" gradientUnits="userSpaceOnUse">
      <stop stop-color="#EEF4FF"/>
      <stop offset="1" stop-color="#D9E7FF" stop-opacity="0"/>
    </linearGradient>
  </defs>
</svg>
