<svg width="1600" height="900" viewBox="0 0 1600 900" fill="none" xmlns="http://www.w3.org/2000/svg">
  <rect width="1600" height="900" fill="#EEF1F5"/>
  <rect y="586" width="1600" height="314" fill="#DFF7E7"/>
  <rect y="0" width="1600" height="900" fill="url(#paint0_linear_2_2)"/>
  <path d="M0 645C212 587 384 589 551 640C730 695 923 696 1088 640C1264 580 1411 584 1600 632V900H0V645Z" fill="#A8D5B4"/>
  <rect x="285" y="293" width="1030" height="311" rx="18" fill="#F8F9FB"/>
  <rect x="339" y="339" width="922" height="227" rx="12" fill="#102D5A"/>
  <rect x="403" y="388" width="121" height="178" fill="#D4A72C"/>
  <rect x="566" y="388" width="121" height="178" fill="#D4A72C"/>
  <rect x="728" y="388" width="121" height="178" fill="#D4A72C"/>
  <rect x="891" y="388" width="121" height="178" fill="#D4A72C"/>
  <rect x="1054" y="388" width="121" height="178" fill="#D4A72C"/>
  <path d="M797 177L1097 293H497L797 177Z" fill="#163D7A"/>
  <rect x="754" y="180" width="86" height="48" rx="10" fill="#F6BE42"/>
  <circle cx="1327" cy="172" r="49" fill="#FDF3CF"/>
  <defs>
    <linearGradient id="paint0_linear_2_2" x1="800" y1="0" x2="800" y2="900" gradientUnits="userSpaceOnUse">
      <stop stop-color="#FFFFFF"/>
      <stop offset="1" stop-color="#EEF1F5" stop-opacity="0"/>
    </linearGradient>
  </defs>
</svg>
